HIERARCHY
ROOT SpineBase
{
  OFFSET 0.000000 0.000000 0.000000
  CHANNELS 6 Xposition Yposition Zposition Zrotation Xrotation Yrotation
  JOINT SpineMid
  {
    OFFSET -0.000000 31.640515 0.000000
    CHANNELS 3 Zrotation Xrotation Yrotation
    JOINT SpineShoulder
    {
      OFFSET -0.081838 23.572673 -0.851536
      CHANNELS 3 Zrotation Xrotation Yrotation
      JOINT Neck
      {
        OFFSET -0.000487 7.823930 -0.643586
        CHANNELS 3 Zrotation Xrotation Yrotation
        JOINT Head
        {
          OFFSET -5.089491 12.877214 2.748301
          CHANNELS 3 Zrotation Xrotation Yrotation
          End Site
          {
            OFFSET 0 0 0
          }
        }
      }
      JOINT ShoulderLeft
      {
        OFFSET -12.705889 -4.912912 8.920001
        CHANNELS 3 Zrotation Xrotation Yrotation
        JOINT ElbowLeft
        {
          OFFSET -1.384122 -27.774312 2.084144
          CHANNELS 3 Zrotation Xrotation Yrotation
          JOINT WristLeft
          {
            OFFSET -0.887500 -21.956680 -6.244752
            CHANNELS 3 Zrotation Xrotation Yrotation
            JOINT HandLeft
            {
              OFFSET 1.777284 -5.492859 -1.110033
              CHANNELS 3 Zrotation Xrotation Yrotation
              JOINT HandTipLeft
              {
                OFFSET -0.064883 -7.219428 -1.718841
                CHANNELS 3 Zrotation Xrotation Yrotation
                End Site
                {
                  OFFSET 0 0 0
                }
              }
              JOINT ThumbLeft
              {
                OFFSET 2.498528 0.985464 -4.211046
                CHANNELS 3 Zrotation Xrotation Yrotation
                End Site
                {
                  OFFSET 0 0 0
                }
              }
            }
          }
        }
      }
      JOINT ShoulderRight
      {
        OFFSET 11.669478 -2.651804 -9.671017
        CHANNELS 3 Zrotation Xrotation Yrotation
        JOINT ElbowRight
        {
          OFFSET 7.249840 -22.006429 -9.058244
          CHANNELS 3 Zrotation Xrotation Yrotation
          JOINT WristRight
          {
            OFFSET -1.003664 -20.766598 -11.309076
            CHANNELS 3 Zrotation Xrotation Yrotation
            JOINT HandRight
            {
              OFFSET -2.319612 -7.887344 -2.905981
              CHANNELS 3 Zrotation Xrotation Yrotation
              JOINT HandTipRight
              {
                OFFSET -1.242226 -7.530639 -1.973799
                CHANNELS 3 Zrotation Xrotation Yrotation
                End Site
                {
                  OFFSET 0 0 0
                }
              }
              JOINT ThumbRight
              {
                OFFSET -2.564967 0.608863 -1.844056
                CHANNELS 3 Zrotation Xrotation Yrotation
                End Site
                {
                  OFFSET 0 0 0
                }
              }
            }
          }
        }
      }
    }
  }
  JOINT HipLeft
  {
    OFFSET -6.199498 0.591957 0.338259
    CHANNELS 3 Zrotation Xrotation Yrotation
    JOINT KneeLeft
    {
      OFFSET 4.282892 -36.934416 -1.677619
      CHANNELS 3 Zrotation Xrotation Yrotation
      JOINT AnkleLeft
      {
        OFFSET 8.681105 -38.723823 13.617079
        CHANNELS 3 Zrotation Xrotation Yrotation
        JOINT FootLeft
        {
          OFFSET -1.190655 -8.272360 -4.805974
          CHANNELS 3 Zrotation Xrotation Yrotation
          End Site
          {
            OFFSET 0 0 0
          }
        }
      }
    }
  }
  JOINT HipRight
  {
    OFFSET 6.364473 1.446625 -7.293507
    CHANNELS 3 Zrotation Xrotation Yrotation
    JOINT KneeRight
    {
      OFFSET 13.612575 -31.012279 -5.431180
      CHANNELS 3 Zrotation Xrotation Yrotation
      JOINT AnkleRight
      {
        OFFSET 9.170134 -37.848019 6.798037
        CHANNELS 3 Zrotation Xrotation Yrotation
        JOINT FootRight
        {
          OFFSET -1.798297 -8.328921 -4.195104
          CHANNELS 3 Zrotation Xrotation Yrotation
          End Site
          {
            OFFSET 0 0 0
          }
        }
      }
    }
  }
}
MOTION
Frames: 5
Frame Time: 0.033333
-8.341934 83.628414 337.904043 0.000000 0.000000 31.275861 -0.000000 -0.000000 -31.275861 -0.000000 0.000000 0.000000 -0.000000 0.000000 0.000000 0.000000 0.000000 0.000000 -0.000000 0.000000 0.000000 -0.000000 0.000000 0.000000 -0.000000 0.000000 0.000000 -0.000000 0.000000 0.000000 0.000000 0.000000 0.000000 0.000000 0.000000 0.000000 -0.000000 0.000000 0.000000 -0.000000 0.000000 0.000000 -0.000000 0.000000 0.000000 -0.000000 0.000000 0.000000 0.000000 0.000000 0.000000 0.000000 0.000000 0.000000 -0.000000 -0.000000 -31.275861 -0.000000 0.000000 0.000000 -0.000000 0.000000 0.000000 0.000000 0.000000 0.000000 -0.000000 -0.000000 -31.275861 -0.000000 0.000000 0.000000 -0.000000 0.000000 0.000000 0.000000 0.000000 0.000000
-8.910792 83.754089 337.173515 -0.080530 0.362604 31.634315 -0.121621 -0.350963 -31.634433 -0.000000 0.000000 0.000000 -0.000000 0.000000 0.000000 0.000000 0.000000 0.000000 -0.828076 -0.240230 -0.051876 1.796158 -1.437469 -0.149513 -7.294012 -2.554809 0.091691 9.397453 3.351791 -1.073254 0.000000 0.000000 0.000000 0.000000 0.000000 0.000000 -0.000000 0.000000 0.000000 -0.000000 0.000000 0.000000 1.113816 -2.342175 0.304462 -0.102683 1.292918 -0.381223 0.000000 0.000000 0.000000 0.000000 0.000000 0.000000 -0.121621 -0.350963 -31.634433 -1.368743 1.242595 -0.189144 -0.027790 -2.734824 1.207530 0.000000 0.000000 0.000000 -0.814980 -1.116529 -32.056945 0.181363 1.016790 0.412023 1.377360 -0.091074 -0.675037 0.000000 0.000000 0.000000
-9.445379 83.848772 336.542757 -0.081339 0.694683 31.812101 -0.297082 -0.633202 -31.813249 -0.170293 0.827109 -0.012735 -0.764419 -1.336378 -0.004204 0.000000 0.000000 0.000000 -1.327830 -1.295545 -0.101550 3.195408 -2.546563 -0.248806 -12.614655 -4.184952 0.204929 16.541626 5.151806 -2.493234 0.000000 0.000000 0.000000 0.000000 0.000000 0.000000 -0.697402 -0.569528 0.447409 0.619099 -1.106268 -0.271503 2.409512 -3.802220 0.455829 -0.093813 2.692548 -0.837702 0.000000 0.000000 0.000000 0.000000 0.000000 0.000000 -0.080228 -1.640770 -31.927425 -3.189509 3.106440 -0.132803 -0.286150 -4.804553 2.196681 0.000000 0.000000 0.000000 -1.619287 -2.010153 -32.597078 1.645621 1.339185 0.805570 1.391621 0.618924 -1.475153 0.000000 0.000000 0.000000
-9.945695 83.912464 336.011767 -0.002035 0.995901 31.810328 -0.125024 0.185639 -31.815552 0.105545 0.115782 -0.003431 -1.151831 -1.939743 -0.049055 0.000000 0.000000 0.000000 -1.909622 -1.887742 -0.161488 4.229366 -3.375575 -0.313400 -16.482498 -5.173951 0.370660 21.879571 5.781453 -3.823244 0.000000 0.000000 0.000000 0.000000 0.000000 0.000000 -1.029675 -1.107857 0.484641 0.993789 -1.361066 -0.369490 3.314220 -5.638867 0.868363 0.024695 4.197976 -1.379885 0.000000 0.000000 0.000000 0.000000 0.000000 0.000000 -0.344894 -2.491070 -32.006205 -4.310597 4.653922 -0.020366 -0.812735 -6.166973 2.971770 0.000000 0.000000 0.000000 -2.406373 -2.698227 -32.896015 2.438377 1.870247 1.090895 1.993502 1.221637 -2.256133 0.000000 0.000000 0.000000
-10.411741 83.945164 335.580547 0.157689 1.265960 31.628893 -0.115821 0.228513 -31.630338 0.133941 0.154793 0.004993 -1.545151 -2.499663 -0.119631 0.000000 0.000000 0.000000 -2.437356 -2.442268 -0.222276 4.920418 -3.960486 -0.352607 -19.263310 -5.703909 0.585008 25.722477 5.538205 -4.865676 0.000000 0.000000 0.000000 0.000000 0.000000 0.000000 -1.356459 -1.809975 0.400845 1.422848 -1.414781 -0.449225 4.027965 -7.430519 1.407578 0.251466 5.807230 -2.017630 0.000000 0.000000 0.000000 0.000000 0.000000 0.000000 -0.746853 -3.363210 -31.924574 -5.096392 6.174936 0.198320 -1.631715 -6.793201 3.542015 0.000000 0.000000 0.000000 -3.173148 -3.195893 -32.952363 3.210209 2.318337 1.309742 2.539234 2.016396 -3.067565 0.000000 0.000000 0.000000
